<?xml version="1.0" standalone="no"?>
<!DOCTYPE svg PUBLIC "-//W3C//DTD SVG 1.1//EN" "http://www.w3.org/Graphics/SVG/1.1/DTD/svg11.dtd">
<svg xmlns:inkscape="http://www.inkscape.org/namespaces/inkscape" xmlns:sodipodi="http://sodipodi.sourceforge.net/DTD/sodipodi-0.dtd" xmlns="http://www.w3.org/2000/svg" xmlns:svg="http://www.w3.org/2000/svg" xmlns:rdf="http://www.w3.org/1999/02/22-rdf-syntax-ns#" xmlns:cc="http://creativecommons.org/ns#" xmlns:dc="http://purl.org/dc/elements/1.1/" id="svg2984" version="1.1" inkscape:version="1.2.2 (b0a84865, 2022-12-01)" width="323.43283" height="97.254646" xml:space="preserve" sodipodi:docname="logo bigger text white.svg" inkscape:export-filename="../../../../../../../Plantyst s.r.o/Corporate - Dokumenty/Corporate Identity/Logo/Derived/logo bigger text white.png" inkscape:export-xdpi="118.45193" inkscape:export-ydpi="118.45193" viewBox="0 0 323.43283 97.254646"><metadata id="metadata2990"><rdf:RDF><cc:Work rdf:about=""><dc:format>image/svg+xml</dc:format><dc:type rdf:resource="http://purl.org/dc/dcmitype/StillImage"/></cc:Work></rdf:RDF></metadata><defs id="defs2988"><clipPath clipPathUnits="userSpaceOnUse" id="clipPath3000"><path d="M 0,363.602 V 0 h 1356.99 v 363.602 z" id="path3002" inkscape:connector-curvature="0"/></clipPath></defs><sodipodi:namedview pagecolor="#000000" bordercolor="#666666" borderopacity="1" objecttolerance="10" gridtolerance="10" guidetolerance="10" inkscape:pageopacity="0" inkscape:pageshadow="2" inkscape:window-width="1680" inkscape:window-height="925" id="namedview2986" showgrid="false" inkscape:zoom="3.0222804" inkscape:cx="142.44211" inkscape:cy="65.017131" inkscape:window-x="0" inkscape:window-y="25" inkscape:window-maximized="1" inkscape:current-layer="g2992" showguides="true" fit-margin-top="0" fit-margin-left="0" fit-margin-right="0" fit-margin-bottom="0" inkscape:pagecheckerboard="false" inkscape:showpageshadow="2" inkscape:deskcolor="#d1d1d1"/><g id="g2992" inkscape:groupmode="layer" inkscape:label="logo_fin" transform="matrix(1.25,0,0,-1.25,8.6148646,88.374027)"><path style="fill:#ffffff;stroke:none;stroke-width:0;stroke-linecap:butt;stroke-linejoin:miter;stroke-opacity:1;stroke-miterlimit:4;stroke-dasharray:none" d="m 65.171549,45.919704 0.01136,2.012045 L 30.043178,57.402597 3.9141787,48.167108 4.5116139,46.319102 6.7414276,39.348927 7.2965691,37.332656 30.67635,1.36682 65.313927,34.247363 64.975548,36.669107 Z" id="path148" sodipodi:nodetypes="ccccccccccc"/><g id="g3167" transform="matrix(1.0318431,0,0,1.0318431,2.3499034,-5.9097915)"><path d="m 61.308928,23.039002 -0.288,15.878886 -12.257024,3.37408 L 36.730112,22.834995 23.17801,26.313984 28.519936,3.6059904 61.308928,23.039002" style="fill:#71ceec;fill-opacity:1;fill-rule:nonzero;stroke:none;stroke-width:1.06666672" id="path3022" inkscape:connector-curvature="0"/><path d="M 23.17801,26.313984 19.152998,24.976998 10.754995,38.841088 4.7940096,41.907968 8.9080064,27.298048 13.788006,21.374003 28.519936,3.6059904 23.17801,26.313984" style="fill:#1eb7ec;fill-opacity:1;fill-rule:nonzero;stroke:none;stroke-width:1.06666672" id="path3024" inkscape:connector-curvature="0"/><path d="m 1.5160013,52.408064 6.4960051,-2.73408 8.9939966,-13.081088 3.999002,0.08704 -2.028007,9.844992 L 0,57.38496 1.5160013,52.408064" style="fill:#4f8b24;fill-opacity:1;fill-rule:nonzero;stroke:none;stroke-width:1.06666672" id="path3026" inkscape:connector-curvature="0"/><path d="m 18.977997,46.524928 41.876019,14.96704 0.03994,-9.312 H 47.332096 L 33.88288,39.529984 21.004006,36.679936 18.977997,46.524928" style="fill:#82cd36;fill-opacity:1;fill-rule:nonzero;stroke:none;stroke-width:1.06666672" id="path3028" inkscape:connector-curvature="0"/><path d="M 21.424998,34.761984 34.366976,36.972032 47.68896,49.78688 60.882944,50.230016 60.692992,41.264896 48.509952,44.989952 36.00896,24.976998 22.751002,28.196096 21.424998,34.761984" style="fill:#8e96a9;fill-opacity:1;fill-rule:nonzero;stroke:none;stroke-width:1.06666672" id="path3030" inkscape:connector-curvature="0"/><path d="M 2.094999,50.617088 8.2939904,48.336128 17.070003,35.204096 21.424998,34.761984 22.751002,28.19712 19.025997,26.872064 9.8089984,41.769984 4.256,43.862016 2.094999,50.617088" style="fill:#6c717f;fill-opacity:1;fill-rule:nonzero;stroke:none;stroke-width:1.06666672" id="path3032" inkscape:connector-curvature="0"/><path d="M 0,57.385984 18.976998,46.523904 60.852992,61.491968 30.173952,65.671936 0,57.385984" style="fill:#66b431;fill-opacity:1;fill-rule:nonzero;stroke:none;stroke-width:1.06666672" id="path3034" inkscape:connector-curvature="0"/></g><path d="m 81.156203,28.521689 c 0,-1.64969 2.283415,-2.580459 5.032897,-2.580459 4.354981,0 5.792821,1.606864 5.792821,7.78238 0,6.595114 -1.43784,7.778735 -5.792821,7.778735 -1.775888,0 -3.680252,-0.252852 -5.032897,-0.761745 z m -3.973652,14.926024 c 2.323962,0.973139 6.173238,1.606864 9.006549,1.606864 6.849789,0 9.980145,-2.495264 9.980145,-11.247594 0,-8.753697 -3.29938,-11.37516 -9.515443,-11.37516 -2.705291,0 -4.397806,0.759924 -5.497599,1.521669 v -9.049739 h -3.973652 v 28.54396" style="fill:#ffffff;fill-opacity:1;fill-rule:nonzero;stroke:none;stroke-width:1.8983" id="path3036" inkscape:connector-curvature="0"/><path d="m 106.53573,28.774541 c 0,-2.071566 0.46652,-3.25701 1.86154,-4.821049 l -3.38321,-1.861538 c -1.64969,1.692059 -2.45198,3.382752 -2.45198,6.513107 v 24.950817 h 3.97365 V 28.774541" style="fill:#ffffff;fill-opacity:1;fill-rule:nonzero;stroke:none;stroke-width:1.8983" id="path3038" inkscape:connector-curvature="0"/><path d="m 127.05001,33.08624 c -1.35264,0.33987 -3.17135,0.466524 -4.99007,0.466524 -3.63788,0 -4.86387,-0.380873 -4.86387,-3.721255 0,-3.595057 0.97314,-4.144954 4.82105,-4.144954 1.77588,0 3.5946,0.33987 5.03289,0.845574 z m 3.89028,-8.963724 c -2.53626,-1.057423 -6.29989,-1.690693 -9.17603,-1.690693 -6.47073,0 -8.88035,1.605042 -8.88035,7.187836 0,6.089866 3.55223,7.061638 8.45666,7.061638 2.03056,0 3.6807,-0.211849 5.70944,-0.633725 0,4.483001 -1.14079,5.497599 -5.83564,5.497599 -2.19959,0 -4.6092,-0.338048 -6.34272,-1.014598 l -0.84694,3.468859 c 1.90254,0.507071 4.82105,1.055145 7.82338,1.055145 6.30172,0 9.0922,-1.859716 9.0922,-8.330454 V 24.122516" style="fill:#ffffff;fill-opacity:1;fill-rule:nonzero;stroke:none;stroke-width:1.8983" id="path3040" inkscape:connector-curvature="0"/><path d="m 141.81384,23.022723 h -3.97411 v 20.25551 c 2.45245,1.057424 6.38555,1.776344 9.38789,1.776344 6.1327,0 8.58468,-2.240589 8.58468,-10.021147 V 23.022723 h -3.97365 v 11.503636 c 0,5.623341 -1.14262,6.851611 -5.41378,6.851611 -1.73351,0 -3.13036,-0.170847 -4.61103,-0.594545 V 23.022723" style="fill:#ffffff;fill-opacity:1;fill-rule:nonzero;stroke:none;stroke-width:1.8983" id="path3042" inkscape:connector-curvature="0"/><path d="M 167.78791,40.911446 V 30.464778 c 0,-3.128533 0.84512,-4.438353 3.63744,-4.438353 1.43601,0 2.74765,0.210027 3.84745,0.590899 l 0.76174,-3.297557 c -1.354,-0.508893 -3.51122,-0.887944 -5.28711,-0.887944 -4.81923,0 -6.97826,1.436019 -6.97826,7.780558 v 10.699065 h -3.67844 v 3.552231 h 3.67844 v 4.059303 l 4.01874,1.64969 v -5.708993 h 7.5259 v -3.552231 h -7.5259" style="fill:#ffffff;fill-opacity:1;fill-rule:nonzero;stroke:none;stroke-width:1.8983" id="path3044" inkscape:connector-curvature="0"/><path d="m 178.06694,44.463677 h 4.27296 c 2.11257,-4.947246 4.31216,-11.670837 5.96186,-17.634503 2.32578,5.79282 4.52581,11.882686 6.04702,17.634503 h 4.14314 c -2.15494,-7.273486 -4.98826,-14.674994 -8.03341,-21.86283 -1.05697,-2.538089 -2.45381,-5.541791 -3.5946,-7.697094 h -4.52401 c 1.09979,2.028649 2.40961,4.778588 3.46658,7.104372 -2.1121,7.611534 -4.99189,16.322862 -7.73954,22.455552" style="fill:#ffffff;fill-opacity:1;fill-rule:nonzero;stroke:none;stroke-width:1.8983" id="path3046" inkscape:connector-curvature="0"/><path d="m 217.10731,40.573398 c -1.73535,0.633725 -4.10214,1.097971 -6.21652,1.097971 -3.08752,0 -4.65384,-0.37905 -4.65384,-3.171359 0,-1.775887 1.18544,-2.494808 4.86386,-2.833311 5.37277,-0.464246 7.69674,-2.156761 7.69674,-6.257066 0,-5.372768 -3.12672,-6.97781 -8.71134,-6.97781 -2.19959,0 -5.62334,0.421421 -7.69672,1.140797 l 0.97359,3.384574 c 1.52304,-0.636914 4.44019,-1.142618 6.63794,-1.142618 3.13036,0 4.73904,0.464701 4.73904,3.298012 0,1.903909 -1.01596,2.792308 -4.94907,3.128534 -4.94724,0.423698 -7.65435,1.733518 -7.65435,5.920841 0,5.32812 3.34219,6.892614 8.83934,6.892614 2.1554,0 4.86205,-0.421876 7.1473,-1.097971 l -1.01597,-3.383208" style="fill:#ffffff;fill-opacity:1;fill-rule:nonzero;stroke:none;stroke-width:1.8983" id="path3048" inkscape:connector-curvature="0"/><path d="M 229.9686,40.911446 V 30.464778 c 0,-3.128533 0.84512,-4.438353 3.63561,-4.438353 1.44011,0 2.74993,0.210027 3.84973,0.590899 l 0.76174,-3.297557 c -1.35264,-0.508893 -3.50985,-0.887944 -5.28574,-0.887944 -4.82288,0 -6.97782,1.436019 -6.97782,7.780558 v 10.699065 h -3.6807 v 3.552231 h 3.6807 v 4.059303 l 4.01648,1.64969 v -5.708993 h 7.52771 v -3.552231 h -7.52771" style="fill:#ffffff;fill-opacity:1;fill-rule:nonzero;stroke:none;stroke-width:1.8983" id="path3050" inkscape:connector-curvature="0"/></g></svg>