<?xml version="1.0" standalone="no"?>
<!DOCTYPE svg PUBLIC "-//W3C//DTD SVG 1.1//EN" "http://www.w3.org/Graphics/SVG/1.1/DTD/svg11.dtd">
<svg xmlns:inkscape="http://www.inkscape.org/namespaces/inkscape" xmlns:sodipodi="http://sodipodi.sourceforge.net/DTD/sodipodi-0.dtd" xmlns="http://www.w3.org/2000/svg" xmlns:svg="http://www.w3.org/2000/svg" xmlns:rdf="http://www.w3.org/1999/02/22-rdf-syntax-ns#" xmlns:cc="http://creativecommons.org/ns#" xmlns:dc="http://purl.org/dc/elements/1.1/" id="svg2984" version="1.1" inkscape:version="1.1 (c4e8f9e, 2021-05-24)" width="323.43283" height="97.254646" xml:space="preserve" sodipodi:docname="logo bigger text.svg" inkscape:export-filename="/Users/michalkutil/Downloads/logo bigger text.png" inkscape:export-xdpi="118.45193" inkscape:export-ydpi="118.45193" viewBox="0 0 323.43283 97.254646"><metadata id="metadata2990"><rdf:RDF><cc:Work rdf:about=""><dc:format>image/svg+xml</dc:format><dc:type rdf:resource="http://purl.org/dc/dcmitype/StillImage"/></cc:Work></rdf:RDF></metadata><defs id="defs2988"><clipPath clipPathUnits="userSpaceOnUse" id="clipPath3000"><path d="M 0,363.602 V 0 h 1356.99 v 363.602 z" id="path3002" inkscape:connector-curvature="0"/></clipPath></defs><sodipodi:namedview pagecolor="#ffffff" bordercolor="#666666" borderopacity="1" objecttolerance="10" gridtolerance="10" guidetolerance="10" inkscape:pageopacity="0" inkscape:pageshadow="2" inkscape:window-width="2560" inkscape:window-height="1387" id="namedview2986" showgrid="false" inkscape:zoom="3.7600022" inkscape:cx="197.73925" inkscape:cy="121.94142" inkscape:window-x="0" inkscape:window-y="25" inkscape:window-maximized="1" inkscape:current-layer="g2992" showguides="true" fit-margin-top="0" fit-margin-left="0" fit-margin-right="0" fit-margin-bottom="0" inkscape:pagecheckerboard="0"/><g id="g2992" inkscape:groupmode="layer" inkscape:label="logo_fin" transform="matrix(1.25,0,0,-1.25,8.6148646,88.374027)"><path style="fill:#ffffff;stroke:none;stroke-width:0;stroke-linecap:butt;stroke-linejoin:miter;stroke-opacity:1;stroke-miterlimit:4;stroke-dasharray:none" d="m 65.171549,45.919704 0.01136,2.012045 L 30.043178,57.402597 3.9141787,48.167108 4.5116139,46.319102 6.7414276,39.348927 7.2965691,37.332656 30.67635,1.36682 65.313927,34.247363 64.975548,36.669107 Z" id="path148" sodipodi:nodetypes="ccccccccccc"/><g id="g3167" transform="matrix(1.0318431,0,0,1.0318431,2.3499034,-5.9097915)"><path d="m 61.308928,23.039002 -0.288,15.878886 -12.257024,3.37408 L 36.730112,22.834995 23.17801,26.313984 28.519936,3.6059904 61.308928,23.039002" style="fill:#71ceec;fill-opacity:1;fill-rule:nonzero;stroke:none;stroke-width:1.06666672" id="path3022" inkscape:connector-curvature="0"/><path d="M 23.17801,26.313984 19.152998,24.976998 10.754995,38.841088 4.7940096,41.907968 8.9080064,27.298048 13.788006,21.374003 28.519936,3.6059904 23.17801,26.313984" style="fill:#1eb7ec;fill-opacity:1;fill-rule:nonzero;stroke:none;stroke-width:1.06666672" id="path3024" inkscape:connector-curvature="0"/><path d="m 1.5160013,52.408064 6.4960051,-2.73408 8.9939966,-13.081088 3.999002,0.08704 -2.028007,9.844992 L 0,57.38496 1.5160013,52.408064" style="fill:#4f8b24;fill-opacity:1;fill-rule:nonzero;stroke:none;stroke-width:1.06666672" id="path3026" inkscape:connector-curvature="0"/><path d="m 18.977997,46.524928 41.876019,14.96704 0.03994,-9.312 H 47.332096 L 33.88288,39.529984 21.004006,36.679936 18.977997,46.524928" style="fill:#82cd36;fill-opacity:1;fill-rule:nonzero;stroke:none;stroke-width:1.06666672" id="path3028" inkscape:connector-curvature="0"/><path d="M 21.424998,34.761984 34.366976,36.972032 47.68896,49.78688 60.882944,50.230016 60.692992,41.264896 48.509952,44.989952 36.00896,24.976998 22.751002,28.196096 21.424998,34.761984" style="fill:#8e96a9;fill-opacity:1;fill-rule:nonzero;stroke:none;stroke-width:1.06666672" id="path3030" inkscape:connector-curvature="0"/><path d="M 2.094999,50.617088 8.2939904,48.336128 17.070003,35.204096 21.424998,34.761984 22.751002,28.19712 19.025997,26.872064 9.8089984,41.769984 4.256,43.862016 2.094999,50.617088" style="fill:#6c717f;fill-opacity:1;fill-rule:nonzero;stroke:none;stroke-width:1.06666672" id="path3032" inkscape:connector-curvature="0"/><path d="M 0,57.385984 18.976998,46.523904 60.852992,61.491968 30.173952,65.671936 0,57.385984" style="fill:#66b431;fill-opacity:1;fill-rule:nonzero;stroke:none;stroke-width:1.06666672" id="path3034" inkscape:connector-curvature="0"/></g><g id="g3176" transform="matrix(1.7796466,0,0,1.7796466,-47.106373,-30.062569)"><path d="m 72.071936,32.91904 c 0,-0.926976 1.283072,-1.449984 2.828032,-1.449984 2.447104,0 3.25504,0.902912 3.25504,4.372992 0,3.705856 -0.807936,4.370944 -3.25504,4.370944 -0.997888,0 -2.067968,-0.14208 -2.828032,-0.428032 z m -2.232832,8.387072 c 1.305856,0.546816 3.4688,0.902912 5.060864,0.902912 3.84896,0 5.607936,-1.402112 5.607936,-6.320128 0,-4.918784 -1.853952,-6.391808 -5.346816,-6.391808 -1.520128,0 -2.471168,0.427008 -3.089152,0.85504 v -5.085133 h -2.232832 v 16.039117" style="fill:#5a5758;fill-opacity:1;fill-rule:nonzero;stroke:none;stroke-width:1.06666672" id="path3036" inkscape:connector-curvature="0"/><path d="m 86.332928,33.06112 c 0,-1.164032 0.262144,-1.830144 1.046016,-2.708992 l -1.901056,-1.046016 c -0.926976,0.950784 -1.377792,1.9008 -1.377792,3.659776 v 14.020096 h 2.232832 V 33.06112" style="fill:#5a5758;fill-opacity:1;fill-rule:nonzero;stroke:none;stroke-width:1.06666672" id="path3038" inkscape:connector-curvature="0"/><path d="m 97.860096,35.483904 c -0.760064,0.190976 -1.782016,0.262144 -2.803968,0.262144 -2.04416,0 -2.733056,-0.214016 -2.733056,-2.091008 0,-2.020096 0.546816,-2.329088 2.708992,-2.329088 0.997888,0 2.01984,0.190976 2.828032,0.475136 z m 2.185984,-5.0368 c -1.425152,-0.594176 -3.539968,-0.950016 -5.156096,-0.950016 -3.635968,0 -4.989952,0.901888 -4.989952,4.038912 0,3.421952 1.996032,3.968 4.751872,3.968 1.140992,0 2.068224,-0.11904 3.208192,-0.356096 0,2.51904 -0.641024,3.089152 -3.279104,3.089152 -1.235968,0 -2.589952,-0.189952 -3.564032,-0.570112 l -0.475904,1.949184 c 1.069056,0.284928 2.708992,0.592896 4.396032,0.592896 3.540992,0 5.108992,-1.044992 5.108992,-4.68096 v -7.08096" style="fill:#5a5758;fill-opacity:1;fill-rule:nonzero;stroke:none;stroke-width:1.06666672" id="path3040" inkscape:connector-curvature="0"/><path d="m 106.15603,29.82912 h -2.23309 v 11.38176 c 1.37805,0.594176 3.5881,0.998144 5.27514,0.998144 3.44602,0 4.82381,-1.259008 4.82381,-5.630976 V 29.82912 h -2.23283 v 6.464 c 0,3.159808 -0.64205,3.849984 -3.04205,3.849984 -0.97408,0 -1.75898,-0.096 -2.59098,-0.33408 V 29.82912" style="fill:#5a5758;fill-opacity:1;fill-rule:nonzero;stroke:none;stroke-width:1.06666672" id="path3042" inkscape:connector-curvature="0"/><path d="m 120.7511,39.88096 v -5.87008 c 0,-1.757952 0.47488,-2.493952 2.04391,-2.493952 0.80691,0 1.54393,0.118016 2.16192,0.332032 l 0.42803,-1.852928 c -0.76083,-0.285952 -1.97299,-0.498944 -2.97088,-0.498944 -2.70797,0 -3.92115,0.806912 -3.92115,4.371968 v 6.011904 h -2.06695 v 1.996032 h 2.06695 v 2.28096 l 2.25817,0.926976 v -3.207936 h 4.22887 V 39.88096 h -4.22887" style="fill:#5a5758;fill-opacity:1;fill-rule:nonzero;stroke:none;stroke-width:1.06666672" id="path3044" inkscape:connector-curvature="0"/><path d="m 126.52698,41.876992 h 2.40102 c 1.18707,-2.779904 2.42304,-6.557952 3.35002,-9.908992 1.30688,3.25504 2.5431,6.676992 3.39788,9.908992 h 2.32807 c -1.21088,-4.08704 -2.80295,-8.246016 -4.51405,-12.284928 -0.59392,-1.426176 -1.37882,-3.113984 -2.01984,-4.325069 H 128.928 c 0.61798,1.139917 1.35398,2.685133 1.9479,3.992013 -1.18681,4.276992 -2.80499,9.171968 -4.34892,12.617984" style="fill:#5a5758;fill-opacity:1;fill-rule:nonzero;stroke:none;stroke-width:1.06666672" id="path3046" inkscape:connector-curvature="0"/><path d="m 148.46413,39.691008 c -0.97511,0.356096 -2.30503,0.61696 -3.49312,0.61696 -1.73491,0 -2.61504,-0.212992 -2.61504,-1.782016 0,-0.997888 0.66611,-1.401856 2.73305,-1.592064 3.01901,-0.260864 4.32487,-1.211904 4.32487,-3.515904 0,-3.019008 -1.75693,-3.920896 -4.89498,-3.920896 -1.23597,0 -3.15981,0.2368 -4.32486,0.641024 l 0.54707,1.901824 c 0.85581,-0.357888 2.49498,-0.642048 3.72992,-0.642048 1.75898,0 2.66291,0.26112 2.66291,1.853184 0,1.069824 -0.57088,1.569024 -2.78093,1.757952 -2.7799,0.23808 -4.30105,0.97408 -4.30105,3.326976 0,2.99392 1.87801,3.873024 4.96691,3.873024 1.21114,0 2.73203,-0.237056 4.01613,-0.61696 l -0.57088,-1.901056" style="fill:#5a5758;fill-opacity:1;fill-rule:nonzero;stroke:none;stroke-width:1.06666672" id="path3048" inkscape:connector-curvature="0"/><path d="m 155.69101,39.88096 v -5.87008 c 0,-1.757952 0.47488,-2.493952 2.04288,-2.493952 0.80921,0 1.54521,0.118016 2.1632,0.332032 l 0.42803,-1.852928 c -0.76006,-0.285952 -1.97222,-0.498944 -2.97011,-0.498944 -2.71002,0 -3.9209,0.806912 -3.9209,4.371968 v 6.011904 h -2.06822 v 1.996032 h 2.06822 v 2.28096 l 2.2569,0.926976 v -3.207936 h 4.22989 V 39.88096 h -4.22989" style="fill:#5a5758;fill-opacity:1;fill-rule:nonzero;stroke:none;stroke-width:1.06666672" id="path3050" inkscape:connector-curvature="0"/></g></g></svg>